<svg style="vertical-align: -0.566ex;" xmlns="http://www.w3.org/2000/svg" width="41.788ex" height="2.262ex" role="img" focusable="false" viewBox="0 -750 18470.3 1000" xmlns:xlink="http://www.w3.org/1999/xlink"><defs><path id="MJX-1-NCM-I-1D43F" d="M520 667C520 678 513 683 500 683L354 680L223 683C208 684 200 676 200 659C200 652 203 647 209 646C218 645 226 644 231 644C262 643 279 641 284 640C289 639 292 636 292 631C292 629 291 623 288 613L156 82C150 60 140 47 125 42C119 40 101 39 70 39C49 39 39 31 39 15C39 5 49 0 70 0L527 0C552 0 554 0 561 19L639 233C642 240 643 245 643 248C643 258 638 263 627 263C617 263 612 254 607 240C588 191 570 154 555 131C518 75 455 39 363 39L270 39C259 39 252 39 249 40C242 40 239 42 239 45C239 47 241 54 244 67L377 601C383 624 396 637 415 642C421 643 442 644 478 644C506 644 520 644 520 667Z"></path><path id="MJX-1-NCM-I-1D43C" d="M497 667C497 678 491 683 478 683L349 680L218 683C202 684 194 676 194 659C194 649 205 644 226 644C269 644 290 639 290 630C290 625 289 620 288 615L155 82C150 60 140 47 125 42C118 40 100 39 69 39C44 39 34 38 34 15C34 5 40 0 53 0L181 3L313 0C329-1 337 7 337 23C337 39 325 39 303 39C264 39 240 37 240 53C240 58 241 65 244 75L376 602C381 623 391 636 406 641C413 643 431 644 462 644C486 644 497 645 497 667Z"></path><path id="MJX-1-NCM-I-1D443" d="M555 683L235 683C212 683 201 682 201 660C201 649 212 644 234 644C254 644 294 647 294 631C294 629 293 623 290 613L158 82C152 60 142 47 128 42C121 40 103 39 72 39C50 39 40 37 40 16C40 5 46 0 59 0L184 3L248 2C259 2 299 0 312 0C328 0 336 8 336 24C336 34 325 39 304 39C264 39 244 43 244 52C244 52 245 55 247 68L307 312L472 312C537 312 599 332 657 371C722 414 754 467 754 530C754 629 660 683 555 683M524 644C611 644 654 614 654 554C654 498 626 423 597 397C559 363 509 346 447 346L313 346L379 610C387 644 387 644 429 644Z"></path><path id="MJX-1-NCM-I-1D446" d="M133 157C133 181 136 201 141 217C141 227 136 232 125 232C120 232 116 230 114 228C109 223 52 8 52-8C52-17 57-22 67-22C72-22 79-17 88-6L133 47C168 1 224-22 300-22C366-22 424 5 476 58C528 111 554 170 554 236C554 283 538 323 505 355C490 368 470 379 445 388C422 393 400 399 378 405L312 423C279 432 254 469 254 509C254 552 271 589 306 621C341 653 380 669 423 669C515 669 561 619 561 520C561 502 557 482 557 465L557 462C560 455 565 451 573 451C582 451 588 459 592 474L645 691C645 700 640 705 630 705C625 705 618 700 609 689L566 637C538 682 491 705 424 705C361 705 304 681 254 634C202 586 176 531 176 468C176 396 223 339 282 323L387 296C441 281 475 262 475 195C475 149 457 108 422 72C387 36 347 17 302 17C204 17 133 60 133 157Z"></path><path id="MJX-1-NCM-N-3D" d="M698 367L80 367C64 367 56 359 56 344C56 329 64 321 80 321L698 321C714 321 722 329 722 344C722 356 711 367 698 367M698 179L80 179C64 179 56 171 56 156C56 141 64 133 80 133L698 133C714 133 722 141 722 156C722 169 711 179 698 179Z"></path><path id="MJX-1-NCM-N-28" d="M318-248C327-248 332-243 332-234C332-231 330-227 327-223C275-183 233-117 202-26C175 53 161 131 161 208L161 292C161 369 175 447 202 526C233 617 275 683 327 723C330 726 332 730 332 734C332 743 327 748 318 748C317 748 314 747 311 745C251 699 201 631 160 540C121 453 101 371 101 292L101 208C101 129 121 47 160-40C201-131 251-199 311-245C314-247 317-248 318-248Z"></path><path id="MJX-1-NCM-N-31" d="M269 666C228 624 168 603 89 603L89 564C141 564 184 572 217 588L217 82C217 64 213 52 204 47C195 42 170 39 130 39L95 39L95 0C120 2 174 3 257 3C340 3 394 2 419 0L419 39L384 39C343 39 318 42 310 47C302 52 297 64 297 82L297 636C297 660 295 666 269 666Z"></path><path id="MJX-1-NCM-N-2F" d="M444 718C445 720 445 723 445 726C445 742 437 750 421 750C410 750 403 745 399 734L57-218C56-220 56-223 56-226C56-242 64-250 80-250C91-250 98-245 102-234Z"></path><path id="MJX-1-NCM-I-1D441" d="M864 683C845 683 783 680 764 680C745 680 682 683 663 683C648 683 641 675 641 659C641 650 648 645 663 644C705 644 726 631 726 605C726 599 725 592 724 585L616 157L401 662C393 681 391 683 366 683L233 683C209 683 200 681 200 659C200 649 211 644 232 644C274 644 295 643 296 640L163 110C154 71 131 49 95 42C69 39 39 43 39 15C39 5 45 0 56 0C74 0 136 3 155 3C174 3 238 0 257 0C272 0 279 8 279 24C279 33 271 38 255 39C214 40 194 53 194 78C194 83 195 90 197 100L326 611L576 21C582 7 590 0 599 0C608 0 614 8 618 24L757 574C770 625 798 643 860 644C874 645 881 653 881 669C878 678 877 683 864 683Z"></path><path id="MJX-1-NCM-N-29" d="M78-245C138-199 188-131 229-40C268 47 288 129 288 208L288 292C288 371 268 453 229 540C188 631 138 699 78 745C75 747 72 748 71 748C62 748 57 743 57 734C57 730 59 726 62 723C114 683 156 617 187 526C214 447 228 369 228 292L228 208C228 131 214 53 187-26C156-117 114-183 62-223C59-227 57-231 57-234C57-243 62-248 71-248C72-248 75-247 78-245Z"></path><path id="MJX-1-NCM-N-2217" d="M404 372C397 372 390 370 385 366L267 279L282 425C285 445 269 462 250 462C231 462 215 445 218 425L233 279L115 366C110 370 103 372 96 372C78 372 63 357 63 339C63 325 70 315 83 309L217 250L83 191C70 185 63 175 63 161C63 143 78 128 96 128C103 128 110 130 115 134L233 221L218 75C215 55 231 39 250 39C269 39 285 55 282 75L267 221L385 134C390 130 397 128 404 128C415 128 424 133 431 142C446 162 435 183 417 191L283 250L417 309C430 315 437 325 437 339C437 357 422 372 404 372Z"></path><path id="MJX-1-NCM-I-1D462" d="M543 144C543 153 538 158 527 158C518 158 513 151 510 137C505 118 500 99 493 80C480 39 462 18 440 18C422 18 413 32 413 60C413 77 420 111 433 161L460 267C469 303 477 328 483 359L489 386C491 393 492 398 492 401C492 421 481 431 459 431C437 431 423 419 417 394L343 98C342 95 338 88 330 76C314 50 275 18 235 18C197 18 178 44 178 95C178 136 196 202 231 294C242 324 248 345 248 357C248 407 213 442 163 442C118 442 83 417 58 367C39 328 29 301 29 287C29 278 34 273 45 273C58 273 60 279 64 293C87 373 119 413 160 413C174 413 181 403 181 384C181 369 175 348 164 319C126 218 107 148 107 111C107 34 155-11 232-11C275-11 314 9 347 50C361 9 391-11 437-11C506-11 527 70 543 144Z"></path><path id="MJX-1-NCM-I-1D45A" d="M657 442C596 442 543 412 498 353C489 412 451 442 383 442C324 442 273 416 231 363C223 407 188 442 137 442C96 442 66 409 45 344C34 312 29 293 29 287C29 278 34 273 45 273C50 273 53 274 56 276C61 285 64 292 66 299C84 375 107 413 134 413C152 413 161 399 161 371C161 358 156 331 145 290L88 63C84 51 79 25 79 19C79-1 90-11 111-11C131-11 145-1 152 19C153 24 160 49 171 92L192 181L222 295C233 318 250 341 272 365C301 397 337 413 380 413C413 413 429 391 429 348C429 335 424 308 414 267L387 153C380 124 364 64 356 32C355 25 354 21 354 19C354-1 365-11 387-11C398-11 406-8 413-1C428 14 429 21 435 48L494 285C497 298 511 321 535 353C565 393 605 413 654 413C687 413 703 391 703 348C703 309 683 236 642 129C633 106 629 87 629 74C629 25 666-11 714-11C759-11 793 14 818 64C838 104 848 131 848 144C848 153 843 158 832 158C825 157 818 148 813 137C791 58 759 18 716 18C703 18 696 28 696 47C696 62 702 84 714 115C755 222 775 295 775 333C775 404 728 442 657 442Z"></path><path id="MJX-1-NCM-I-1D456" d="M284 621C284 648 271 661 244 661C216 661 188 633 188 605C188 578 202 565 229 565C257 565 284 593 284 621M259 138C237 59 205 19 164 19C151 19 144 28 144 47C144 64 173 150 232 306C240 329 244 347 244 360C244 409 210 445 161 445C118 445 84 420 59 369C39 328 29 301 29 288C29 279 34 275 45 275C58 275 60 281 64 295C87 375 118 415 158 415C171 415 178 406 178 387C178 373 175 357 168 338C145 275 121 208 101 155C86 115 78 88 78 74C78 25 114-11 162-11C205-11 239 14 264 64C283 103 293 130 293 145C293 154 288 159 277 159C274 159 259 150 259 138Z"></path><path id="MJX-1-NCM-N-5B" d="M233-202L159-202L159 702L233 702C248 702 256 710 256 726C256 742 248 750 233 750L114 750L114-250L233-250C248-250 256-242 256-226C256-214 245-202 233-202Z"></path><path id="MJX-1-NCM-I-1D466" d="M163 442C118 442 83 417 58 367C39 328 29 301 29 286C29 277 34 272 45 272C59 272 60 278 64 293C87 372 119 412 160 412C173 412 180 403 180 385C180 369 175 346 164 317C126 214 107 145 107 108C107 32 154-13 231-13C264-13 295-1 323 23C288-109 233-175 158-175C124-175 101-164 89-142C129-140 149-121 149-85C149-60 136-47 109-47C72-47 50-78 50-115C50-170 100-205 158-205C273-205 367-99 392-1L486 377C489 388 490 396 490 401C490 421 479 431 458 431C442 431 429 423 420 408C414 387 409 369 406 354L342 97C332 61 279 16 234 16C196 16 177 41 177 92C177 134 194 198 227 284C240 319 247 343 247 357C247 406 212 442 163 442Z"></path><path id="MJX-1-NCM-I-1D45D" d="M355 442C311 442 269 419 228 373C217 419 186 442 137 442C96 442 66 409 45 344C35 311 30 292 30 286C30 277 35 272 46 272C51 272 54 273 57 275C62 284 65 291 66 298C84 374 107 412 134 412C152 412 161 398 161 371C161 356 159 339 154 321L44-118C35-151 34-155-5-155C-23-155-32-163-32-178C-32-189-26-194-15-194C0-194 52-191 67-191C86-191 146-194 165-194C180-194 187-186 187-170C187-160 178-155 159-155C141-155 114-156 114-144C114-131 155 26 159 43C179 6 209-13 249-13C314-13 371 20 421 87C467 148 490 213 490 280C490 367 438 442 355 442M352 412C391 412 411 382 411 323C411 296 405 260 394 215C371 128 342 71 307 42C286 25 267 16 248 16C219 16 199 29 188 56C179 77 174 92 174 100L225 309C230 331 248 354 276 377C304 400 329 412 352 412Z"></path><path id="MJX-1-NCM-I-1D453" d="M552 633C552 677 509 705 462 705C400 705 357 665 334 586C329 568 318 517 302 433L237 433C215 433 204 432 204 411C204 400 214 395 235 395L295 395L222 8C211-49 201-91 192-119C180-156 163-175 141-175C126-175 114-171 103-164C135-159 151-140 151-108C151-82 138-69 111-69C77-69 53-99 53-133C53-177 94-205 141-205C166-205 189-195 208-174C240-141 265-94 283-31C294 8 304 46 311 84L369 395L451 395C474 395 484 396 484 419C484 428 474 433 454 433L377 433C383 474 411 625 420 644C430 665 444 675 462 675C477 675 490 671 501 664C470 657 454 639 454 608C454 582 467 569 494 569C528 569 552 599 552 633Z"></path><path id="MJX-1-NCM-I-1D465" d="M527 373C527 419 482 442 432 442C389 442 355 419 329 373C308 419 273 442 222 442C173 442 133 419 101 374C74 335 60 306 60 287C60 278 65 273 75 273C84 273 90 278 92 287C111 345 153 413 220 413C253 413 269 392 269 351C269 330 251 252 216 118C199 51 169 18 126 18C112 18 99 21 88 26C114 36 127 54 127 80C127 106 114 119 87 119C54 119 29 91 29 58C29 12 76-11 125-11C167-11 201 12 228 58C247 12 283-11 335-11C383-11 423 12 455 57C482 96 496 125 496 144C496 153 491 158 481 158C472 158 467 153 464 144C447 87 402 18 337 18C304 18 287 38 287 79C287 92 292 120 303 165L337 300C356 375 387 413 431 413C445 413 458 410 469 405C442 396 429 378 429 351C429 325 443 312 470 312C502 312 527 341 527 373Z"></path><path id="MJX-1-NCM-N-2C" d="M139 106C107 106 86 82 86 50C86 20 109-5 139-5C153-5 165-1 174 8L175 0C175-63 154-117 112-160C105-168 101-174 101-178C101-188 105-193 114-193C123-193 135-181 152-158C186-110 203-57 203 0C203 53 185 106 139 106Z"></path><path id="MJX-1-NCM-N-5D" d="M45-250L164-250L164 750L45 750C30 750 22 742 22 726C22 710 30 702 45 702L119 702L119-202L45-202C30-202 22-210 22-226C22-242 30-250 45-250Z"></path></defs><g stroke="currentColor" fill="currentColor" stroke-width="0" transform="scale(1,-1)"><g data-mml-node="math" data-latex="L_IPS = (1/N) * Sum_{i} [ y_{i} / p_{i} * L(f(x_{i}), y_{i}) ]"><g data-mml-node="msub" data-latex="L_I"><g data-mml-node="mi" data-latex="L"><use data-c="1D43F" xlink:href="#MJX-1-NCM-I-1D43F"></use></g><g data-mml-node="mi" transform="translate(714,-150) scale(0.707)" data-latex="I"><use data-c="1D43C" xlink:href="#MJX-1-NCM-I-1D43C"></use></g></g><g data-mml-node="mi" data-latex="P" transform="translate(1115.4,0)"><use data-c="1D443" xlink:href="#MJX-1-NCM-I-1D443"></use></g><g data-mml-node="mi" data-latex="S" transform="translate(1869.4,0)"><use data-c="1D446" xlink:href="#MJX-1-NCM-I-1D446"></use></g><g data-mml-node="mo" data-latex="=" transform="translate(2792.2,0)"><use data-c="3D" xlink:href="#MJX-1-NCM-N-3D"></use></g><g data-mml-node="mo" data-latex="(" transform="translate(3848,0)"><use data-c="28" xlink:href="#MJX-1-NCM-N-28"></use></g><g data-mml-node="mn" data-latex="1" transform="translate(4237,0)"><use data-c="31" xlink:href="#MJX-1-NCM-N-31"></use></g><g data-mml-node="mo" data-latex="/" transform="translate(4737,0)"><use data-c="2F" xlink:href="#MJX-1-NCM-N-2F"></use></g><g data-mml-node="mi" data-latex="N" transform="translate(5237,0)"><use data-c="1D441" xlink:href="#MJX-1-NCM-I-1D441"></use></g><g data-mml-node="mo" data-latex=")" transform="translate(6118,0)"><use data-c="29" xlink:href="#MJX-1-NCM-N-29"></use></g><g data-mml-node="mo" data-latex="*" transform="translate(6729.2,0)"><use data-c="2217" xlink:href="#MJX-1-NCM-N-2217"></use></g><g data-mml-node="mi" data-latex="S" transform="translate(7451.4,0)"><use data-c="1D446" xlink:href="#MJX-1-NCM-I-1D446"></use></g><g data-mml-node="mi" data-latex="u" transform="translate(8096.4,0)"><use data-c="1D462" xlink:href="#MJX-1-NCM-I-1D462"></use></g><g data-mml-node="msub" data-latex="m_{i}" transform="translate(8668.4,0)"><g data-mml-node="mi" data-latex="m"><use data-c="1D45A" xlink:href="#MJX-1-NCM-I-1D45A"></use></g><g data-mml-node="TeXAtom" transform="translate(911,-150) scale(0.707)" data-latex="{i}" data-mjx-texclass="ORD"><g data-mml-node="mi" data-latex="i"><use data-c="1D456" xlink:href="#MJX-1-NCM-I-1D456"></use></g></g></g><g data-mml-node="mo" data-latex="[" transform="translate(9873.4,0)"><use data-c="5B" xlink:href="#MJX-1-NCM-N-5B"></use></g><g data-mml-node="msub" data-latex="y_{i}" transform="translate(10151.4,0)"><g data-mml-node="mi" data-latex="y"><use data-c="1D466" xlink:href="#MJX-1-NCM-I-1D466"></use></g><g data-mml-node="TeXAtom" transform="translate(523,-150) scale(0.707)" data-latex="{i}" data-mjx-texclass="ORD"><g data-mml-node="mi" data-latex="i"><use data-c="1D456" xlink:href="#MJX-1-NCM-I-1D456"></use></g></g></g><g data-mml-node="mo" data-latex="/" transform="translate(10968.3,0)"><use data-c="2F" xlink:href="#MJX-1-NCM-N-2F"></use></g><g data-mml-node="msub" data-latex="p_{i}" transform="translate(11468.3,0)"><g data-mml-node="mi" data-latex="p"><use data-c="1D45D" xlink:href="#MJX-1-NCM-I-1D45D"></use></g><g data-mml-node="TeXAtom" transform="translate(536,-150) scale(0.707)" data-latex="{i}" data-mjx-texclass="ORD"><g data-mml-node="mi" data-latex="i"><use data-c="1D456" xlink:href="#MJX-1-NCM-I-1D456"></use></g></g></g><g data-mml-node="mo" data-latex="*" transform="translate(12520.5,0)"><use data-c="2217" xlink:href="#MJX-1-NCM-N-2217"></use></g><g data-mml-node="mi" data-latex="L" transform="translate(13242.7,0)"><use data-c="1D43F" xlink:href="#MJX-1-NCM-I-1D43F"></use></g><g data-mml-node="mo" data-latex="(" transform="translate(13923.7,0)"><use data-c="28" xlink:href="#MJX-1-NCM-N-28"></use></g><g data-mml-node="mi" data-latex="f" transform="translate(14312.7,0)"><use data-c="1D453" xlink:href="#MJX-1-NCM-I-1D453"></use></g><g data-mml-node="mo" data-latex="(" transform="translate(14864.7,0)"><use data-c="28" xlink:href="#MJX-1-NCM-N-28"></use></g><g data-mml-node="msub" data-latex="x_{i}" transform="translate(15253.7,0)"><g data-mml-node="mi" data-latex="x"><use data-c="1D465" xlink:href="#MJX-1-NCM-I-1D465"></use></g><g data-mml-node="TeXAtom" transform="translate(605,-150) scale(0.707)" data-latex="{i}" data-mjx-texclass="ORD"><g data-mml-node="mi" data-latex="i"><use data-c="1D456" xlink:href="#MJX-1-NCM-I-1D456"></use></g></g></g><g data-mml-node="mo" data-latex=")" transform="translate(16152.7,0)"><use data-c="29" xlink:href="#MJX-1-NCM-N-29"></use></g><g data-mml-node="mo" data-latex="," transform="translate(16541.7,0)"><use data-c="2C" xlink:href="#MJX-1-NCM-N-2C"></use></g><g data-mml-node="msub" data-latex="y_{i}" transform="translate(16986.4,0)"><g data-mml-node="mi" data-latex="y"><use data-c="1D466" xlink:href="#MJX-1-NCM-I-1D466"></use></g><g data-mml-node="TeXAtom" transform="translate(523,-150) scale(0.707)" data-latex="{i}" data-mjx-texclass="ORD"><g data-mml-node="mi" data-latex="i"><use data-c="1D456" xlink:href="#MJX-1-NCM-I-1D456"></use></g></g></g><g data-mml-node="mo" data-latex=")" transform="translate(17803.3,0)"><use data-c="29" xlink:href="#MJX-1-NCM-N-29"></use></g><g data-mml-node="mo" data-latex="]" transform="translate(18192.3,0)"><use data-c="5D" xlink:href="#MJX-1-NCM-N-5D"></use></g></g></g></svg>