<svg style="vertical-align: -2.705ex;" xmlns="http://www.w3.org/2000/svg" width="72.008ex" height="6.24ex" role="img" focusable="false" viewBox="0 -1562.5 31827.4 2758.3" xmlns:xlink="http://www.w3.org/1999/xlink"><defs><path id="MJX-1-NCM-N-73" d="M360 130C360 206 308 254 205 274C158 283 128 294 112 305C96 316 88 332 88 351C88 398 123 421 193 421C261 421 298 383 303 306C304 298 309 294 319 294C330 294 336 303 336 321L336 420C336 439 331 448 321 448C310 448 295 430 285 422C260 439 229 448 193 448C104 448 33 408 33 323C33 289 47 260 76 237C111 208 144 202 207 191C272 178 305 149 305 104C305 47 270 18 199 18C130 18 86 64 67 155C64 168 59 175 50 175C39 175 33 165 33 146L33 17C33-2 38-11 48-11C51-11 56-8 64-1C82 15 74 12 92 30C121 3 157-11 199-11C294-11 360 38 360 130Z"></path><path id="MJX-1-NCM-N-63" d="M251 416C293 416 325 406 347 386C323 383 306 361 306 338C306 305 322 289 355 289C388 289 404 306 404 339C404 410 327 448 250 448C188 448 137 426 96 380C55 334 34 279 34 216C34 155 55 101 96 56C137 11 187-11 248-11C298-11 337 3 365 32C388 55 403 78 411 102C414 111 415 117 415 121C415 130 409 134 398 134C390 134 385 130 382 122C361 55 320 21 257 21C228 21 200 34 172 61C139 92 123 144 123 218C123 318 161 416 251 416Z"></path><path id="MJX-1-NCM-N-6F" d="M249-11C311-11 363 11 406 55C449 99 471 152 471 214C471 277 450 332 408 378C366 424 313 448 250 448C187 448 135 424 92 378C49 332 28 277 28 214C28 152 49 99 92 55C135 11 188-11 249-11M250 21C202 21 166 42 141 85C125 113 117 159 117 222C117 283 125 327 140 355C164 398 200 419 249 419C296 419 332 398 357 357C374 329 382 284 382 222C382 106 348 21 250 21Z"></path><path id="MJX-1-NCM-N-72" d="M364 378C364 417 327 442 288 442C237 442 198 412 172 351L172 442L28 431L28 393C63 393 84 390 92 384C100 378 104 365 104 342L104 79C104 60 101 48 94 44C87 40 65 38 28 38L28 0L143 3C185 4 228 3 271 0L271 38L247 38C214 38 193 41 186 46C179 51 176 63 176 81L176 232C176 275 184 314 199 347C219 390 248 412 287 413C277 403 272 391 272 377C272 346 287 331 318 331C345 331 364 352 364 378Z"></path><path id="MJX-1-NCM-N-65" d="M415 251C415 366 348 448 236 448C176 448 126 425 85 378C47 334 28 281 28 220C28 157 49 104 91 58C133 12 185-11 247-11C304-11 348 9 378 48C403 81 415 105 415 121C415 131 409 136 398 136C390 136 385 131 382 120C360 54 317 21 253 21C208 21 173 42 146 85C127 116 118 163 117 227L387 227C409 227 415 229 415 251M326 349C337 316 342 284 342 255L118 255C121 321 138 366 168 389C193 409 215 419 236 419C281 419 311 396 326 349Z"></path><path id="MJX-1-NCM-N-3D" d="M698 367L80 367C64 367 56 359 56 344C56 329 64 321 80 321L698 321C714 321 722 329 722 344C722 356 711 367 698 367M698 179L80 179C64 179 56 171 56 156C56 141 64 133 80 133L698 133C714 133 722 141 722 156C722 169 711 179 698 179Z"></path><path id="MJX-1-NCM-LO-2211" d="M1265-450L1389-124L1355-124C1336-174 1304-216 1258-250C1145-334 1000-356 791-356L200-356L700 232C707 239 710 246 710 251L244 894L781 894C970 894 1127 870 1230 804C1290 766 1332 719 1356 663L1389 663L1265 950L88 950C70 950 60 947 57 941C56 938 56 926 56 905L581 187L68-415C61-423 57-430 57-435C57-445 67-450 88-450Z"></path><path id="MJX-1-NCM-I-1D456" d="M284 621C284 648 271 661 244 661C216 661 188 633 188 605C188 578 202 565 229 565C257 565 284 593 284 621M259 138C237 59 205 19 164 19C151 19 144 28 144 47C144 64 173 150 232 306C240 329 244 347 244 360C244 409 210 445 161 445C118 445 84 420 59 369C39 328 29 301 29 288C29 279 34 275 45 275C58 275 60 281 64 295C87 375 118 415 158 415C171 415 178 406 178 387C178 373 175 357 168 338C145 275 121 208 101 155C86 115 78 88 78 74C78 25 114-11 162-11C205-11 239 14 264 64C283 103 293 130 293 145C293 154 288 159 277 159C274 159 259 150 259 138Z"></path><path id="MJX-1-NCM-N-31" d="M269 666C228 624 168 603 89 603L89 564C141 564 184 572 217 588L217 82C217 64 213 52 204 47C195 42 170 39 130 39L95 39L95 0C120 2 174 3 257 3C340 3 394 2 419 0L419 39L384 39C343 39 318 42 310 47C302 52 297 64 297 82L297 636C297 660 295 666 269 666Z"></path><path id="MJX-1-NCM-I-1D45B" d="M537 137C514 58 481 18 440 18C427 18 420 28 420 47C420 61 426 84 438 115C478 224 498 296 498 333C498 403 451 442 381 442C322 442 271 416 230 363C222 407 187 442 136 442C80 442 58 390 44 345C34 313 29 294 29 287C29 278 34 273 45 273C50 273 53 274 56 276C61 285 64 292 65 299C83 375 106 413 133 413C151 413 160 399 160 371C160 358 155 331 144 290L87 63C84 50 78 24 78 19C78-1 89-11 111-11C130-11 144-1 151 19C153 24 159 49 170 92L191 181L221 295C232 318 249 341 270 365C299 397 335 413 378 413C411 413 427 391 427 348C427 310 406 234 363 120C356 102 353 87 353 74C353 25 390-11 438-11C482-11 517 14 542 64C561 104 571 131 571 144C571 153 566 158 555 158C552 158 537 149 537 137Z"></path><path id="MJX-1-NCM-I-1D464" d="M590 391C590 382 595 372 606 362C629 340 641 313 641 281C641 264 635 237 623 198C586 78 539 18 482 18C435 18 412 45 412 100C412 119 416 142 423 171C441 243 460 314 477 387C479 394 480 398 480 401C480 421 469 431 447 431C427 431 414 421 407 401L367 245C352 187 341 167 341 115C341 107 341 101 342 98C319 45 290 18 255 18C205 18 180 47 180 104C180 141 197 204 231 293C242 323 248 344 248 357C248 406 212 442 163 442C118 442 84 417 59 367C39 328 29 301 29 287C29 278 34 273 45 273C58 273 60 279 64 293C88 373 120 413 160 413C174 413 181 403 181 384C181 369 175 347 164 317C127 220 108 154 108 117C108 32 165-11 252-11C294-11 328 10 355 53C375 10 416-11 479-11C541-11 590 30 625 112C648 164 691 302 691 369C691 384 690 394 689 399C685 418 666 442 644 442C618 442 590 417 590 391Z"></path><path id="MJX-1-NCM-N-22C5" d="M192 250C192 279 168 303 139 303C110 303 86 279 86 250C86 221 110 197 139 197C168 197 192 221 192 250Z"></path><path id="MJX-1-NCM-I-1D45D" d="M355 442C311 442 269 419 228 373C217 419 186 442 137 442C96 442 66 409 45 344C35 311 30 292 30 286C30 277 35 272 46 272C51 272 54 273 57 275C62 284 65 291 66 298C84 374 107 412 134 412C152 412 161 398 161 371C161 356 159 339 154 321L44-118C35-151 34-155-5-155C-23-155-32-163-32-178C-32-189-26-194-15-194C0-194 52-191 67-191C86-191 146-194 165-194C180-194 187-186 187-170C187-160 178-155 159-155C141-155 114-156 114-144C114-131 155 26 159 43C179 6 209-13 249-13C314-13 371 20 421 87C467 148 490 213 490 280C490 367 438 442 355 442M352 412C391 412 411 382 411 323C411 296 405 260 394 215C371 128 342 71 307 42C286 25 267 16 248 16C219 16 199 29 188 56C179 77 174 92 174 100L225 309C230 331 248 354 276 377C304 400 329 412 352 412Z"></path><path id="MJX-1-NCM-N-43" d="M665 443L665 677C665 696 660 705 650 705C643 705 637 700 631 691L584 622C554 653 522 675 487 689C461 700 433 705 403 705C306 705 223 670 156 598C89 526 56 441 56 342C56 243 89 158 155 87C222 14 305-22 403-22C474-22 536 3 588 53C640 103 665 163 665 234C665 248 659 255 648 255C638 255 633 251 633 242C633 241 633 239 632 236C626 116 540 17 415 17C378 17 341 27 302 47C210 97 166 193 166 341C166 481 215 589 302 636C341 656 378 666 414 666C538 666 609 553 626 435C627 422 634 415 645 415C665 415 665 423 665 443Z"></path><path id="MJX-1-NCM-N-54" d="M653 447L685 447L666 677L55 677L36 447L68 447C75 513 78 572 106 605C132 635 181 638 242 638C271 638 289 638 295 637C313 633 313 624 313 603L313 82C313 69 312 61 309 56C303 45 271 39 213 39L169 39L169 0C199 2 263 3 360 3C458 3 522 2 552 0L552 39L508 39C450 39 418 45 412 56C409 61 408 69 408 82L408 603C408 614 410 623 412 629C414 635 436 638 479 638C540 638 588 635 614 605C642 572 646 513 653 447Z"></path><path id="MJX-1-NCM-N-52" d="M611 501C611 558 580 604 519 639C468 668 411 683 349 683L35 683L35 644L63 644C98 644 119 641 126 636C133 631 137 620 137 602L137 81C137 63 133 51 126 46C119 41 98 38 63 38L35 38L35-1C62 2 111 3 183 3C256 3 305 2 332-1L332 38L304 38C269 38 248 41 241 46C234 51 230 63 230 81L230 327L340 327C404 327 451 289 462 235C464 224 465 200 465 165C465 138 466 118 467 106C473 22 546-22 634-22C672-22 699-6 714 25C726 48 732 70 732 91C732 104 726 111 715 111C706 111 700 105 699 92C694 36 673 8 638 8C603 8 591 41 585 70C579 104 575 130 572 147L559 226C544 278 507 316 448 339C524 361 611 415 611 501M470 600C491 581 502 548 502 501C502 463 492 431 473 404C450 373 405 357 336 357L230 357L230 609C230 630 236 641 248 642C255 643 274 644 306 644C385 644 426 641 470 600Z"></path><path id="MJX-1-NCM-N-2B" d="M698 274L413 274L413 559C413 575 405 583 389 583C373 583 365 575 365 559L365 274L80 274C64 274 56 266 56 250C56 234 64 226 80 226L365 226L365-59C365-75 373-83 389-83C405-83 413-75 413-59L413 226L698 226C714 226 722 234 722 250C722 263 711 274 698 274Z"></path><path id="MJX-1-NCM-N-32" d="M237 666C186 666 143 648 106 612C69 576 50 534 50 483C50 449 75 424 106 424C136 424 161 450 161 480C161 513 137 536 105 536C102 536 100 536 98 535C117 584 161 627 224 627C306 627 352 556 352 470C352 403 318 331 250 255L62 43C49 28 50 29 50 0L421 0L450 180L417 180C409 129 402 100 396 91C391 86 361 84 306 84L139 84L236 179C304 243 390 312 419 365C439 400 449 435 449 470C449 588 357 666 237 666Z"></path><path id="MJX-1-NCM-N-56" d="M622 581C638 622 674 643 730 644L730 683C687 680 654 679 630 680L513 683L513 645C562 644 586 628 586 599C586 595 584 589 581 581L404 114L218 603C215 613 213 619 213 620C213 636 240 644 294 644L294 683C252 680 204 679 149 680L19 683L19 644C56 644 80 642 91 639C102 636 110 626 116 609L346 2C352-14 361-22 374-22C387-22 396-15 401-1Z"></path><path id="MJX-1-NCM-N-33" d="M303 353C369 378 431 441 431 526C431 569 410 604 369 631C333 654 292 666 246 666C201 666 162 654 127 631C88 605 68 571 68 528C68 495 90 472 122 472C154 472 176 495 176 527C176 560 157 578 119 580C145 615 186 633 242 633C302 633 332 598 332 527C332 485 324 450 309 421C282 373 245 364 183 364C171 362 165 357 165 348C165 333 172 333 192 333L235 333C310 333 348 280 348 173C348 88 317 14 241 14C176 14 128 36 99 80C134 79 160 105 160 139C160 173 135 198 101 198C62 198 42 178 42 137C42 88 64 49 108 18C147-9 193-22 244-22C301-22 350-3 393 34C436 71 457 117 457 173C457 267 383 332 303 353Z"></path><path id="MJX-1-NCM-N-57" d="M910 581C923 623 956 644 1009 644L1009 683C968 680 937 679 915 680L793 683L793 645C850 644 879 627 879 596C879 593 877 587 874 577L729 132L574 605C573 611 572 616 572 619C572 636 600 644 655 644L655 683C612 680 564 679 510 680L385 683L385 644C419 644 442 642 452 639C462 636 469 627 474 612L496 544L362 132L206 607C205 611 204 615 204 619C204 636 232 644 288 644L288 683C245 680 197 679 143 680L18 683L18 644C57 644 80 642 88 638C96 634 103 624 108 606L307 0C312-15 319-22 329-22C335-22 339-21 342-19C349-11 352-4 353 1L513 491L674 0C679-15 686-22 697-22C702-22 707-21 710-19C716-11 719-4 720 1Z"></path><path id="MJX-1-NCM-N-61" d="M483 91L483 150L451 150L451 91C451 52 440 32 419 32C399 32 387 57 387 77L387 274C387 309 383 335 376 353C352 412 283 448 213 448C136 448 60 405 60 333C60 300 77 283 110 283C143 283 159 299 159 332C159 361 144 378 113 381C135 406 168 419 211 419C273 419 311 362 311 297L311 264C233 259 174 247 133 228C66 197 32 154 32 97C32 71 42 49 61 32C93 3 137-11 193-11C252-11 294 14 320 65C327 27 355-6 398-6C451-6 483 36 483 91M200 18C154 18 116 52 116 98C116 191 213 231 311 236L311 141C311 74 267 18 200 18Z"></path><path id="MJX-1-NCM-N-74" d="M332 126L332 186L300 186L300 128C300 78 282 22 238 22C197 22 177 56 177 124L177 395L316 395L316 433L177 433L177 615L145 615C144 582 141 553 134 527C117 461 78 427 19 424L19 395L102 395L102 126C102 67 120 29 155 10C182-4 207-11 232-11C298-11 332 55 332 126Z"></path><path id="MJX-1-NCM-N-68" d="M314 415C359 415 382 380 382 309L382 79C382 60 379 48 372 44C365 40 343 39 306 39L306 0L421 3L535 0L535 39C503 39 482 40 472 43C462 46 458 53 458 64L458 253C458 301 457 334 454 353C444 414 399 445 320 445C259 445 213 417 182 361L182 694L32 683L32 645C68 645 90 642 98 636C106 630 109 616 109 593L109 79C109 60 105 48 98 44C91 40 69 39 32 39L32 0L147 3L261 0L261 39C224 39 203 40 196 44C189 48 185 60 185 79L185 261C185 342 236 415 314 415Z"></path><path id="MJX-1-NCM-N-69" d="M194 601C194 631 169 657 139 657C109 657 83 631 83 601C83 571 108 544 138 544C169 544 194 570 194 601M143 3L247 0L247 39C214 39 194 41 188 45C182 49 180 60 180 78L180 445L37 433L37 395C70 395 91 392 98 387C105 382 108 368 108 345L108 79C108 60 105 48 98 44C91 40 69 39 33 39L33 0Z"></path><path id="MJX-1-NCM-N-6D" d="M315 413C361 413 384 378 384 307L384 79C384 60 381 48 374 44C367 40 344 38 307 38L307 0L423 3L538 0L538 38C501 38 479 40 472 44C465 48 461 60 461 79L461 259C461 339 513 413 590 413C637 413 660 378 660 307L660 79C660 60 656 48 649 44C642 40 619 38 582 38L582 0L698 3L813 0L813 38C781 38 760 39 750 42C740 45 736 52 736 64L736 251C736 298 734 331 731 350C721 411 676 442 597 442C534 442 487 413 455 354C441 413 397 442 322 442C259 442 211 412 179 352L179 442L32 431L32 393C68 393 90 390 98 384C106 378 109 365 109 342L109 79C109 60 105 48 98 44C91 40 69 38 32 38L32 0L148 3L263 0L263 38C226 38 203 40 196 44C189 48 185 60 185 79L185 259C185 340 238 413 315 413Z"></path><path id="MJX-1-NCM-N-22EF" d="M720 250C720 280 694 303 664 303C633 303 607 280 607 250C607 220 633 197 664 197C694 197 720 220 720 250M444 250C444 280 418 303 388 303C357 303 332 280 332 250C332 220 357 197 388 197C418 197 444 220 444 250M169 250C169 280 143 303 112 303C82 303 56 280 56 250C56 220 82 197 112 197C142 197 169 220 169 250Z"></path></defs><g stroke="currentColor" fill="currentColor" stroke-width="0" transform="scale(1,-1)"><g data-mml-node="math" data-latex="\text{score} = \sum_{i=1}^{n} w_i \cdot p_i = w_1 \cdot p_{\text{CTR}} + w_2 \cdot p_{\text{CVR}} + w_3 \cdot p_{\text{WatchTime}} + \cdots + w_n \cdot p_n"><g data-mml-node="mtext" data-latex="\text{score}"><use data-c="73" xlink:href="#MJX-1-NCM-N-73"></use><use data-c="63" xlink:href="#MJX-1-NCM-N-63" transform="translate(394,0)"></use><use data-c="6F" xlink:href="#MJX-1-NCM-N-6F" transform="translate(838,0)"></use><use data-c="72" xlink:href="#MJX-1-NCM-N-72" transform="translate(1338,0)"></use><use data-c="65" xlink:href="#MJX-1-NCM-N-65" transform="translate(1730,0)"></use></g><g data-mml-node="mo" data-latex="=" transform="translate(2451.8,0)"><use data-c="3D" xlink:href="#MJX-1-NCM-N-3D"></use></g><g data-mml-node="munderover" data-latex="\sum_{i=1}^{n}" transform="translate(3507.6,0)"><g data-mml-node="mo" data-latex="\sum"><use data-c="2211" xlink:href="#MJX-1-NCM-LO-2211"></use></g><g data-mml-node="TeXAtom" transform="translate(148.2,-1087.9) scale(0.707)" data-latex="{i=1}" data-mjx-texclass="ORD"><g data-mml-node="mi" data-latex="i"><use data-c="1D456" xlink:href="#MJX-1-NCM-I-1D456"></use></g><g data-mml-node="mo" data-latex="=" transform="translate(345,0)"><use data-c="3D" xlink:href="#MJX-1-NCM-N-3D"></use></g><g data-mml-node="mn" data-latex="1" transform="translate(1123,0)"><use data-c="31" xlink:href="#MJX-1-NCM-N-31"></use></g></g><g data-mml-node="TeXAtom" transform="translate(509.9,1150) scale(0.707)" data-latex="{n}" data-mjx-texclass="ORD"><g data-mml-node="mi" data-latex="n"><use data-c="1D45B" xlink:href="#MJX-1-NCM-I-1D45B"></use></g></g></g><g data-mml-node="msub" data-latex="w_i" transform="translate(5118.2,0)"><g data-mml-node="mi" data-latex="w"><use data-c="1D464" xlink:href="#MJX-1-NCM-I-1D464"></use></g><g data-mml-node="mi" transform="translate(749,-150) scale(0.707)" data-latex="i"><use data-c="1D456" xlink:href="#MJX-1-NCM-I-1D456"></use></g></g><g data-mml-node="mo" data-latex="\cdot" transform="translate(6383.4,0)"><use data-c="22C5" xlink:href="#MJX-1-NCM-N-22C5"></use></g><g data-mml-node="msub" data-latex="p_i" transform="translate(6883.6,0)"><g data-mml-node="mi" data-latex="p"><use data-c="1D45D" xlink:href="#MJX-1-NCM-I-1D45D"></use></g><g data-mml-node="mi" transform="translate(536,-150) scale(0.707)" data-latex="i"><use data-c="1D456" xlink:href="#MJX-1-NCM-I-1D456"></use></g></g><g data-mml-node="mo" data-latex="=" transform="translate(7991.3,0)"><use data-c="3D" xlink:href="#MJX-1-NCM-N-3D"></use></g><g data-mml-node="msub" data-latex="w_1" transform="translate(9047.1,0)"><g data-mml-node="mi" data-latex="w"><use data-c="1D464" xlink:href="#MJX-1-NCM-I-1D464"></use></g><g data-mml-node="mn" transform="translate(749,-150) scale(0.707)" data-latex="1"><use data-c="31" xlink:href="#MJX-1-NCM-N-31"></use></g></g><g data-mml-node="mo" data-latex="\cdot" transform="translate(10421.9,0)"><use data-c="22C5" xlink:href="#MJX-1-NCM-N-22C5"></use></g><g data-mml-node="msub" data-latex="p_{\text{CTR}}" transform="translate(10922.1,0)"><g data-mml-node="mi" data-latex="p"><use data-c="1D45D" xlink:href="#MJX-1-NCM-I-1D45D"></use></g><g data-mml-node="TeXAtom" transform="translate(536,-150) scale(0.707)" data-latex="{\text{CTR}}" data-mjx-texclass="ORD"><g data-mml-node="mtext" data-latex="\text{CTR}"><use data-c="43" xlink:href="#MJX-1-NCM-N-43"></use><use data-c="54" xlink:href="#MJX-1-NCM-N-54" transform="translate(722,0)"></use><use data-c="52" xlink:href="#MJX-1-NCM-N-52" transform="translate(1444,0)"></use></g></g></g><g data-mml-node="mo" data-latex="+" transform="translate(13271.8,0)"><use data-c="2B" xlink:href="#MJX-1-NCM-N-2B"></use></g><g data-mml-node="msub" data-latex="w_2" transform="translate(14272.1,0)"><g data-mml-node="mi" data-latex="w"><use data-c="1D464" xlink:href="#MJX-1-NCM-I-1D464"></use></g><g data-mml-node="mn" transform="translate(749,-150) scale(0.707)" data-latex="2"><use data-c="32" xlink:href="#MJX-1-NCM-N-32"></use></g></g><g data-mml-node="mo" data-latex="\cdot" transform="translate(15646.8,0)"><use data-c="22C5" xlink:href="#MJX-1-NCM-N-22C5"></use></g><g data-mml-node="msub" data-latex="p_{\text{CVR}}" transform="translate(16147.1,0)"><g data-mml-node="mi" data-latex="p"><use data-c="1D45D" xlink:href="#MJX-1-NCM-I-1D45D"></use></g><g data-mml-node="TeXAtom" transform="translate(536,-150) scale(0.707)" data-latex="{\text{CVR}}" data-mjx-texclass="ORD"><g data-mml-node="mtext" data-latex="\text{CVR}"><use data-c="43" xlink:href="#MJX-1-NCM-N-43"></use><use data-c="56" xlink:href="#MJX-1-NCM-N-56" transform="translate(722,0)"></use><use data-c="52" xlink:href="#MJX-1-NCM-N-52" transform="translate(1472,0)"></use></g></g></g><g data-mml-node="mo" data-latex="+" transform="translate(18516.6,0)"><use data-c="2B" xlink:href="#MJX-1-NCM-N-2B"></use></g><g data-mml-node="msub" data-latex="w_3" transform="translate(19516.8,0)"><g data-mml-node="mi" data-latex="w"><use data-c="1D464" xlink:href="#MJX-1-NCM-I-1D464"></use></g><g data-mml-node="mn" transform="translate(749,-150) scale(0.707)" data-latex="3"><use data-c="33" xlink:href="#MJX-1-NCM-N-33"></use></g></g><g data-mml-node="mo" data-latex="\cdot" transform="translate(20891.6,0)"><use data-c="22C5" xlink:href="#MJX-1-NCM-N-22C5"></use></g><g data-mml-node="msub" data-latex="p_{\text{WatchTime}}" transform="translate(21391.8,0)"><g data-mml-node="mi" data-latex="p"><use data-c="1D45D" xlink:href="#MJX-1-NCM-I-1D45D"></use></g><g data-mml-node="TeXAtom" transform="translate(536,-150) scale(0.707)" data-latex="{\text{WatchTime}}" data-mjx-texclass="ORD"><g data-mml-node="mtext" data-latex="\text{WatchTime}"><use data-c="57" xlink:href="#MJX-1-NCM-N-57"></use><use data-c="61" xlink:href="#MJX-1-NCM-N-61" transform="translate(1028,0)"></use><use data-c="74" xlink:href="#MJX-1-NCM-N-74" transform="translate(1528,0)"></use><use data-c="63" xlink:href="#MJX-1-NCM-N-63" transform="translate(1917,0)"></use><use data-c="68" xlink:href="#MJX-1-NCM-N-68" transform="translate(2361,0)"></use><use data-c="54" xlink:href="#MJX-1-NCM-N-54" transform="translate(2917,0)"></use><use data-c="69" xlink:href="#MJX-1-NCM-N-69" transform="translate(3639,0)"></use><use data-c="6D" xlink:href="#MJX-1-NCM-N-6D" transform="translate(3917,0)"></use><use data-c="65" xlink:href="#MJX-1-NCM-N-65" transform="translate(4750,0)"></use></g></g></g><g data-mml-node="mo" data-latex="+" transform="translate(25872.7,0)"><use data-c="2B" xlink:href="#MJX-1-NCM-N-2B"></use></g><g data-mml-node="mo" data-latex="\cdots" transform="translate(26872.9,0)"><use data-c="22EF" xlink:href="#MJX-1-NCM-N-22EF"></use></g><g data-mml-node="mo" data-latex="+" transform="translate(27871.2,0)"><use data-c="2B" xlink:href="#MJX-1-NCM-N-2B"></use></g><g data-mml-node="msub" data-latex="w_n" transform="translate(28871.4,0)"><g data-mml-node="mi" data-latex="w"><use data-c="1D464" xlink:href="#MJX-1-NCM-I-1D464"></use></g><g data-mml-node="mi" transform="translate(749,-150) scale(0.707)" data-latex="n"><use data-c="1D45B" xlink:href="#MJX-1-NCM-I-1D45B"></use></g></g><g data-mml-node="mo" data-latex="\cdot" transform="translate(30316.9,0)"><use data-c="22C5" xlink:href="#MJX-1-NCM-N-22C5"></use></g><g data-mml-node="msub" data-latex="p_n" transform="translate(30817.1,0)"><g data-mml-node="mi" data-latex="p"><use data-c="1D45D" xlink:href="#MJX-1-NCM-I-1D45D"></use></g><g data-mml-node="mi" transform="translate(536,-150) scale(0.707)" data-latex="n"><use data-c="1D45B" xlink:href="#MJX-1-NCM-I-1D45B"></use></g></g></g></g></svg>