<svg style="vertical-align: -0.561ex;" xmlns="http://www.w3.org/2000/svg" width="31.101ex" height="2.253ex" role="img" focusable="false" viewBox="0 -748 13746.7 996" xmlns:xlink="http://www.w3.org/1999/xlink"><defs><path id="MJX-1-NCM-I-1D460" d="M420 354C420 411 362 442 300 442C237 442 192 423 165 385C142 352 130 322 130 295C130 242 165 208 234 193C263 188 285 181 302 173C323 164 333 147 333 123C333 105 325 85 308 62C287 33 250 18 197 18C143 18 108 33 92 62C124 61 151 87 151 119C151 144 138 157 111 157C75 157 52 124 52 88C52 22 124-11 196-11C271-11 325 11 357 56C384 93 397 126 397 156C397 199 376 231 335 252C304 263 280 270 265 273C230 282 194 285 194 328C194 381 244 413 300 413C342 413 369 400 382 375C360 371 337 352 337 327C337 306 348 295 371 295C402 295 420 323 420 354Z"></path><path id="MJX-1-NCM-I-1D450" d="M328 325C328 300 341 287 368 287C404 287 427 318 427 354C427 410 368 442 308 442C239 442 176 412 122 353C68 294 41 229 41 159C41 61 106-11 204-11C257-11 304 2 345 27C379 48 404 69 420 90C427 99 430 106 430 109C430 120 425 126 414 126C409 126 404 122 398 114C365 70 324 42 277 30C246 22 223 18 206 18C149 18 121 53 121 122C121 184 150 274 174 317C198 361 249 413 308 413C346 413 372 402 386 381C355 378 328 358 328 325Z"></path><path id="MJX-1-NCM-I-1D45C" d="M308 442C239 442 176 412 122 353C68 294 41 229 41 159C41 63 106-11 202-11C272-11 334 19 388 78C442 137 469 201 469 272C469 369 405 442 308 442M389 310C389 287 384 255 374 213C353 130 319 73 272 42C248 26 225 18 203 18C149 18 121 65 121 122C121 180 155 288 178 324C216 383 259 413 307 413C361 413 389 367 389 310Z"></path><path id="MJX-1-NCM-I-1D45F" d="M436 374C436 416 395 442 351 442C302 442 261 419 227 372C217 411 183 442 136 442C95 442 65 410 44 345C34 312 29 293 29 287C29 278 34 273 45 273C50 273 53 274 56 276C61 285 64 292 65 299C83 375 106 413 133 413C150 413 159 399 159 371C159 358 154 331 144 290L87 63C84 50 78 24 78 19C78-1 89-11 110-11C130-11 143-1 150 19L169 91C180 134 187 162 190 175L221 303C223 311 231 324 244 343C271 381 302 413 351 413C363 413 373 411 382 406C352 397 337 378 337 351C337 325 351 312 378 312C411 312 436 341 436 374Z"></path><path id="MJX-1-NCM-I-1D452" d="M124 129C124 153 129 186 139 227L188 227C253 227 303 235 339 250C372 264 394 284 405 309C412 326 415 342 415 355C415 410 363 442 307 442C268 442 229 432 190 412C113 372 46 281 46 171C46 69 105-11 204-11C257-11 304 2 345 27C379 48 404 69 420 90C427 99 430 106 430 109C430 120 425 126 414 126C409 126 404 122 398 114C365 70 324 42 277 30C246 22 223 18 206 18C149 18 124 72 124 129M375 355C375 289 311 256 182 256L147 256C166 322 194 366 232 387C262 404 287 413 307 413C343 413 375 391 375 355Z"></path><path id="MJX-1-NCM-N-3D" d="M698 367L80 367C64 367 56 359 56 344C56 329 64 321 80 321L698 321C714 321 722 329 722 344C722 356 711 367 698 367M698 179L80 179C64 179 56 171 56 156C56 141 64 133 80 133L698 133C714 133 722 141 722 156C722 169 711 179 698 179Z"></path><path id="MJX-1-NCM-I-1D443" d="M555 683L235 683C212 683 201 682 201 660C201 649 212 644 234 644C254 644 294 647 294 631C294 629 293 623 290 613L158 82C152 60 142 47 128 42C121 40 103 39 72 39C50 39 40 37 40 16C40 5 46 0 59 0L184 3L248 2C259 2 299 0 312 0C328 0 336 8 336 24C336 34 325 39 304 39C264 39 244 43 244 52C244 52 245 55 247 68L307 312L472 312C537 312 599 332 657 371C722 414 754 467 754 530C754 629 660 683 555 683M524 644C611 644 654 614 654 554C654 498 626 423 597 397C559 363 509 346 447 346L313 346L379 610C387 644 387 644 429 644Z"></path><path id="MJX-1-NCM-I-1D451" d="M429 632L370 389C349 426 320 445 281 445C216 445 159 412 109 345C63 283 40 218 40 151C40 63 91-11 175-11C218-11 260 12 300 59C311 21 345-11 392-11C461-11 483 71 498 145C498 154 493 159 483 159C474 159 468 152 465 138C445 59 421 19 394 19C377 19 368 33 368 60C368 75 370 91 374 107L516 679L516 683C513 690 507 694 499 694C476 694 434 690 374 683C363 682 357 674 357 660C357 650 366 645 384 645C403 645 429 646 429 632M341 376C351 355 356 341 356 332C355 328 354 323 353 316L304 122C301 111 294 99 285 87C248 42 212 19 177 19C138 19 118 49 118 108C118 132 124 168 136 216C157 301 187 359 224 390C244 407 263 415 282 415C309 415 329 402 341 376Z"></path><path id="MJX-1-NCM-I-1D462" d="M543 144C543 153 538 158 527 158C518 158 513 151 510 137C505 118 500 99 493 80C480 39 462 18 440 18C422 18 413 32 413 60C413 77 420 111 433 161L460 267C469 303 477 328 483 359L489 386C491 393 492 398 492 401C492 421 481 431 459 431C437 431 423 419 417 394L343 98C342 95 338 88 330 76C314 50 275 18 235 18C197 18 178 44 178 95C178 136 196 202 231 294C242 324 248 345 248 357C248 407 213 442 163 442C118 442 83 417 58 367C39 328 29 301 29 287C29 278 34 273 45 273C58 273 60 279 64 293C87 373 119 413 160 413C174 413 181 403 181 384C181 369 175 348 164 319C126 218 107 148 107 111C107 34 155-11 232-11C275-11 314 9 347 50C361 9 391-11 437-11C506-11 527 70 543 144Z"></path><path id="MJX-1-NCM-I-1D461" d="M330 419C330 428 320 433 299 433L218 433C244 537 257 591 257 595C257 616 246 626 225 626C202 626 188 613 182 587L145 433L56 433C34 433 23 432 23 411C23 400 33 395 54 395L135 395C86 200 62 97 62 84C62 28 100-11 156-11C194-11 227 6 256 41C280 70 297 98 308 125C312 136 314 142 314 145C314 154 309 159 299 159C291 159 285 154 281 143C247 60 206 19 157 19C140 19 131 33 131 60C131 75 133 91 137 107L208 395L297 395C323 395 330 397 330 419Z"></path><path id="MJX-1-NCM-I-1D456" d="M284 621C284 648 271 661 244 661C216 661 188 633 188 605C188 578 202 565 229 565C257 565 284 593 284 621M259 138C237 59 205 19 164 19C151 19 144 28 144 47C144 64 173 150 232 306C240 329 244 347 244 360C244 409 210 445 161 445C118 445 84 420 59 369C39 328 29 301 29 288C29 279 34 275 45 275C58 275 60 281 64 295C87 375 118 415 158 415C171 415 178 406 178 387C178 373 175 357 168 338C145 275 121 208 101 155C86 115 78 88 78 74C78 25 114-11 162-11C205-11 239 14 264 64C283 103 293 130 293 145C293 154 288 159 277 159C274 159 259 150 259 138Z"></path><path id="MJX-1-NCM-N-28" d="M318-248C327-248 332-243 332-234C332-231 330-227 327-223C275-183 233-117 202-26C175 53 161 131 161 208L161 292C161 369 175 447 202 526C233 617 275 683 327 723C330 726 332 730 332 734C332 743 327 748 318 748C317 748 314 747 311 745C251 699 201 631 160 540C121 453 101 371 101 292L101 208C101 129 121 47 160-40C201-131 251-199 311-245C314-247 317-248 318-248Z"></path><path id="MJX-1-NCM-I-1D44F" d="M281 445C245 445 209 428 174 394L243 679C241 688 238 694 226 694C193 694 120 685 107 684C92 682 84 675 84 660C84 650 93 645 112 645C131 645 157 646 157 632C157 628 152 608 143 571L63 249C52 207 47 173 47 148C47 62 93-11 175-11C240-11 297 22 347 89C392 151 415 216 415 283C415 370 364 445 281 445M279 415C318 415 337 385 337 326C337 299 331 263 319 218C297 133 268 75 233 44C213 27 194 19 175 19C134 19 114 51 114 115C114 137 119 170 129 214L151 304C154 319 159 330 165 338C204 389 242 415 279 415Z"></path><path id="MJX-1-NCM-N-2B" d="M698 274L413 274L413 559C413 575 405 583 389 583C373 583 365 575 365 559L365 274L80 274C64 274 56 266 56 250C56 234 64 226 80 226L365 226L365-59C365-75 373-83 389-83C405-83 413-75 413-59L413 226L698 226C714 226 722 234 722 250C722 263 711 274 698 274Z"></path><path id="MJX-1-NCM-I-1D44E" d="M498 144C498 153 493 158 482 158C474 158 468 151 465 137C445 58 421 18 394 18C377 18 368 32 368 60C368 73 372 97 381 132L438 357C443 376 445 387 445 392C445 412 434 422 412 422C391 422 377 410 370 387C349 424 319 442 281 442C216 442 159 409 109 343C63 281 40 217 40 150C40 63 91-11 175-11C218-11 260 12 300 58C311 20 345-11 392-11C461-11 482 70 498 144M341 374C350 353 355 339 355 330C355 326 354 321 353 314L304 122C301 111 294 99 285 87C248 41 212 18 177 18C138 18 118 48 118 107C118 131 124 167 136 215C157 300 187 357 224 388C244 405 263 413 282 413C309 413 329 400 341 374Z"></path><path id="MJX-1-NCM-N-2217" d="M404 372C397 372 390 370 385 366L267 279L282 425C285 445 269 462 250 462C231 462 215 445 218 425L233 279L115 366C110 370 103 372 96 372C78 372 63 357 63 339C63 325 70 315 83 309L217 250L83 191C70 185 63 175 63 161C63 143 78 128 96 128C103 128 110 130 115 134L233 221L218 75C215 55 231 39 250 39C269 39 285 55 282 75L267 221L385 134C390 130 397 128 404 128C415 128 424 133 431 142C446 162 435 183 417 191L283 250L417 309C430 315 437 325 437 339C437 357 422 372 404 372Z"></path><path id="MJX-1-NCM-I-1D45D" d="M355 442C311 442 269 419 228 373C217 419 186 442 137 442C96 442 66 409 45 344C35 311 30 292 30 286C30 277 35 272 46 272C51 272 54 273 57 275C62 284 65 291 66 298C84 374 107 412 134 412C152 412 161 398 161 371C161 356 159 339 154 321L44-118C35-151 34-155-5-155C-23-155-32-163-32-178C-32-189-26-194-15-194C0-194 52-191 67-191C86-191 146-194 165-194C180-194 187-186 187-170C187-160 178-155 159-155C141-155 114-156 114-144C114-131 155 26 159 43C179 6 209-13 249-13C314-13 371 20 421 87C467 148 490 213 490 280C490 367 438 442 355 442M352 412C391 412 411 382 411 323C411 296 405 260 394 215C371 128 342 71 307 42C286 25 267 16 248 16C219 16 199 29 188 56C179 77 174 92 174 100L225 309C230 331 248 354 276 377C304 400 329 412 352 412Z"></path><path id="MJX-1-NCM-N-29" d="M78-245C138-199 188-131 229-40C268 47 288 129 288 208L288 292C288 371 268 453 229 540C188 631 138 699 78 745C75 747 72 748 71 748C62 748 57 743 57 734C57 730 59 726 62 723C114 683 156 617 187 526C214 447 228 369 228 292L228 208C228 131 214 53 187-26C156-117 114-183 62-223C59-227 57-231 57-234C57-243 62-248 71-248C72-248 75-247 78-245Z"></path><path id="MJX-1-NCM-I-1D454" d="M15-141C15-184 60-205 150-205C197-205 241-193 280-170C324-144 351-109 362-66L471 373C473 383 474 389 474 392C474 412 463 422 442 422C420 422 406 410 399 387C377 424 347 442 310 442C246 442 189 410 140 346C95 286 72 223 72 158C72 71 123-3 207-3C246-3 282 14 315 47L285-71C256-140 211-175 148-175C122-175 100-173 82-169C103-158 113-141 113-118C113-93 99-80 72-80C40-80 15-109 15-141M356 392C376 371 386 351 386 331C386 330 385 325 383 318L336 129C330 106 313 82 286 60C259 38 233 27 210 27C170 27 150 56 150 114C150 169 184 291 204 327C235 384 270 412 311 412C329 412 344 405 356 392Z"></path></defs><g stroke="currentColor" fill="currentColor" stroke-width="0" transform="scale(1,-1)"><g data-mml-node="math" data-latex="score = Product_{i} (bi + ai*pi)^gi"><g data-mml-node="mi" data-latex="s"><use data-c="1D460" xlink:href="#MJX-1-NCM-I-1D460"></use></g><g data-mml-node="mi" data-latex="c" transform="translate(469,0)"><use data-c="1D450" xlink:href="#MJX-1-NCM-I-1D450"></use></g><g data-mml-node="mi" data-latex="o" transform="translate(902,0)"><use data-c="1D45C" xlink:href="#MJX-1-NCM-I-1D45C"></use></g><g data-mml-node="mi" data-latex="r" transform="translate(1387,0)"><use data-c="1D45F" xlink:href="#MJX-1-NCM-I-1D45F"></use></g><g data-mml-node="mi" data-latex="e" transform="translate(1838,0)"><use data-c="1D452" xlink:href="#MJX-1-NCM-I-1D452"></use></g><g data-mml-node="mo" data-latex="=" transform="translate(2581.8,0)"><use data-c="3D" xlink:href="#MJX-1-NCM-N-3D"></use></g><g data-mml-node="mi" data-latex="P" transform="translate(3637.6,0)"><use data-c="1D443" xlink:href="#MJX-1-NCM-I-1D443"></use></g><g data-mml-node="mi" data-latex="r" transform="translate(4391.6,0)"><use data-c="1D45F" xlink:href="#MJX-1-NCM-I-1D45F"></use></g><g data-mml-node="mi" data-latex="o" transform="translate(4842.6,0)"><use data-c="1D45C" xlink:href="#MJX-1-NCM-I-1D45C"></use></g><g data-mml-node="mi" data-latex="d" transform="translate(5327.6,0)"><use data-c="1D451" xlink:href="#MJX-1-NCM-I-1D451"></use></g><g data-mml-node="mi" data-latex="u" transform="translate(5847.6,0)"><use data-c="1D462" xlink:href="#MJX-1-NCM-I-1D462"></use></g><g data-mml-node="mi" data-latex="c" transform="translate(6419.6,0)"><use data-c="1D450" xlink:href="#MJX-1-NCM-I-1D450"></use></g><g data-mml-node="msub" data-latex="t_{i}" transform="translate(6852.6,0)"><g data-mml-node="mi" data-latex="t"><use data-c="1D461" xlink:href="#MJX-1-NCM-I-1D461"></use></g><g data-mml-node="TeXAtom" transform="translate(394,-150) scale(0.707)" data-latex="{i}" data-mjx-texclass="ORD"><g data-mml-node="mi" data-latex="i"><use data-c="1D456" xlink:href="#MJX-1-NCM-I-1D456"></use></g></g></g><g data-mml-node="mo" data-latex="(" transform="translate(7540.5,0)"><use data-c="28" xlink:href="#MJX-1-NCM-N-28"></use></g><g data-mml-node="mi" data-latex="b" transform="translate(7929.5,0)"><use data-c="1D44F" xlink:href="#MJX-1-NCM-I-1D44F"></use></g><g data-mml-node="mi" data-latex="i" transform="translate(8358.5,0)"><use data-c="1D456" xlink:href="#MJX-1-NCM-I-1D456"></use></g><g data-mml-node="mo" data-latex="+" transform="translate(8925.7,0)"><use data-c="2B" xlink:href="#MJX-1-NCM-N-2B"></use></g><g data-mml-node="mi" data-latex="a" transform="translate(9926,0)"><use data-c="1D44E" xlink:href="#MJX-1-NCM-I-1D44E"></use></g><g data-mml-node="mi" data-latex="i" transform="translate(10455,0)"><use data-c="1D456" xlink:href="#MJX-1-NCM-I-1D456"></use></g><g data-mml-node="mo" data-latex="*" transform="translate(11022.2,0)"><use data-c="2217" xlink:href="#MJX-1-NCM-N-2217"></use></g><g data-mml-node="mi" data-latex="p" transform="translate(11744.4,0)"><use data-c="1D45D" xlink:href="#MJX-1-NCM-I-1D45D"></use></g><g data-mml-node="mi" data-latex="i" transform="translate(12247.4,0)"><use data-c="1D456" xlink:href="#MJX-1-NCM-I-1D456"></use></g><g data-mml-node="msup" data-latex=")^g" transform="translate(12592.4,0)"><g data-mml-node="mo" data-latex=")"><use data-c="29" xlink:href="#MJX-1-NCM-N-29"></use></g><g data-mml-node="mi" transform="translate(422,413) scale(0.707)" data-latex="g"><use data-c="1D454" xlink:href="#MJX-1-NCM-I-1D454"></use></g></g><g data-mml-node="mi" data-latex="i" transform="translate(13401.7,0)"><use data-c="1D456" xlink:href="#MJX-1-NCM-I-1D456"></use></g></g></g></svg>